HIERARCHY
ROOT Hips
{
  OFFSET 130.229 99.7389 276.872
  CHANNELS 6 Xposition Yposition Zposition Zrotation Xrotation Yrotation
  JOINT RightUpLeg
  {
    OFFSET -8.9458 -8.66707 0.101652
    CHANNELS 3 Zrotation Xrotation Yrotation
    JOINT RightLeg
    {
      OFFSET 0 -44.4227 1.3727
      CHANNELS 3 Zrotation Xrotation Yrotation
      JOINT RightFoot
      {
        OFFSET 0.253549 -42.0924 -1.46059
        CHANNELS 3 Zrotation Xrotation Yrotation
        JOINT RightToes
        {
          OFFSET 0.04 -4.41509 8.4991
          CHANNELS 3 Zrotation Xrotation Yrotation
          End Site
          {
            OFFSET -0.08 -0.137448 9.77979
          }
        }
      }
    }
  }
  JOINT Spine
  {
    OFFSET 0 11.8905 0
    CHANNELS 3 Zrotation Xrotation Yrotation
    JOINT Spine1
    {
      OFFSET 0 25.6574 0.127663
      CHANNELS 3 Zrotation Xrotation Yrotation
      JOINT HEad
      {
        OFFSET 0 8.73416 0.011341
        CHANNELS 3 Zrotation Xrotation Yrotation
        End Site
        {
          OFFSET -0.29 12.7742 2.51395
        }
      }
      JOINT LeftShoulder1
      {
        OFFSET 8.99 -0.362252 -0.22
        CHANNELS 3 Zrotation Xrotation Yrotation
        JOINT LeftArm
        {
          OFFSET 10.2827 -0.00338 0.322123
          CHANNELS 3 Zrotation Xrotation Yrotation
          JOINT LeftForeArm
          {
            OFFSET 32.7669 0.099144 -1.42434
            CHANNELS 3 Zrotation Xrotation Yrotation
            JOINT LeftHand
            {
              OFFSET 27.5643 0.085362 1.02216
              CHANNELS 3 Zrotation Xrotation Yrotation
              End Site
              {
                OFFSET 16.7443 -0.6 1.50291
              }
            }
          }
        }
      }
      JOINT RightShoulder
      {
        OFFSET -8.99 -0.362252 -0.22
        CHANNELS 3 Zrotation Xrotation Yrotation
        JOINT RightArm
        {
          OFFSET -10.2827 -0.00338 0.322123
          CHANNELS 3 Zrotation Xrotation Yrotation
          JOINT RightForeArm
          {
            OFFSET -32.8971 0.099144 -1.42434
            CHANNELS 3 Zrotation Xrotation Yrotation
            JOINT RightHand
            {
              OFFSET -27.4921 0.085362 1.02216
              CHANNELS 3 Zrotation Xrotation Yrotation
              End Site
              {
                OFFSET -16.6312 -0.6 1.50291
              }
            }
          }
        }
      }
    }
  }
  JOINT LeftUpLeg
  {
    OFFSET 8.9458 -8.66707 0.101652
    CHANNELS 3 Zrotation Xrotation Yrotation
    JOINT LeftLeg
    {
      OFFSET 0 -44.4227 1.3727
      CHANNELS 3 Zrotation Xrotation Yrotation
      JOINT LeftFoot
      {
        OFFSET -0.253549 -42.0924 -1.46059
        CHANNELS 3 Zrotation Xrotation Yrotation
        JOINT LeftToes
        {
          OFFSET -0.04 -4.41509 8.4991
          CHANNELS 3 Zrotation Xrotation Yrotation
          End Site
          {
            OFFSET 0.08 -0.047448 9.77979
          }
        }
      }
    }
  }
}
MOTION
Frames:	10
Frame Time:	0.0166667
133.658 102.927 20.2394 -1.14638 2.32761 172.44 -0.91401 -26.1095 -0.201158 4.33585 60.6647 -14.1026 1.81227 3.15624 -0.240692 1.42192 6.24923 2.02935 -1.32022 1.72484 -0.114183 -1.31755 7.74113 -0.232683 0.180636 1.52487 5.51698 -3.97569e-016 -3.18055e-015 -0 -121.466 -46.8291 -45.1915 8.04961 10.3257 -8.62419 0.368473 9.90896 -0.00117923 13.5644 1.23855 2.51885 98.9786 -48.2112 46.1568 2.23106 11.2807 -5.38631 -0.369625 9.91382 0.00119887 -5.62889 -7.8042 -2.74587 -1.06719 20.8816 24.9454 1.35947 1.59385 0.134703 2.16224 -3.7888 2.09773 
133.551 102.883 18.3934 -0.915518 2.47716 172.982 -0.545085 -26.591 0.261308 5.02599 57.1304 -14.3622 2.50608 1.39067 -0.235107 2.79761 6.55083 0.829953 -1.62364 1.66953 -0.185066 -1.2261 7.42727 -0.323427 0.682301 1.84002 5.02826 -5.96354e-016 0 -1.59028e-015 -119.504 -45.2706 -44.2544 7.56577 10.3493 -8.92999 0.368473 9.90896 -0.00117923 15.211 1.23837 2.12133 98.0896 -50.5761 45.7303 1.49311 11.2147 -5.09099 -0.369625 9.91382 0.00119887 -5.73959 -6.68255 -2.99687 -0.965075 21.3357 24.837 0.999291 0.700424 0.157849 1.8652 -4.06748 2.39922 
133.465 102.818 16.5295 -0.74459 2.58536 173.549 -0.25616 -26.7364 0.952529 5.52394 52.7721 -14.6065 3.3494 -0.460986 -0.235009 4.80903 7.43889 -0.735867 -1.91707 1.619 -0.340524 -1.12317 6.96621 -0.484516 1.1315 2.1893 4.66567 9.93923e-017 -7.95139e-016 -0 -117.713 -44.0073 -43.4824 7.04256 10.3876 -9.17931 0.368473 9.90896 -0.00117923 16.7563 1.2699 1.90378 97.3558 -53.1 45.4064 0.534496 11.0903 -4.7065 -0.369625 9.91382 0.00119887 -5.85227 -5.56784 -3.17414 -0.850205 21.7104 24.7907 0.549107 -0.0785849 0.182841 2.04004 -4.39642 2.59982 
133.429 102.68 14.6621 -0.71017 2.48711 174.161 -0.0931859 -26.6754 1.8581 5.66614 47.4229 -15.2373 3.43132 -1.21713 -0.223769 4.92043 6.96109 -1.03053 -2.32722 1.59977 -0.690147 -0.901972 6.03107 -0.85041 1.54933 2.70252 4.63941 -9.93923e-017 0 1.59028e-015 -116.112 -43.5225 -42.8462 6.35045 10.4692 -9.25172 0.368473 9.90896 -0.00117923 18.0148 1.39606 2.14934 96.9532 -55.8838 45.2727 -0.77531 10.8725 -4.17948 -0.369625 9.91382 0.00119887 -5.96437 -4.72249 -3.29185 -0.83674 22.0939 24.8592 0.547746 -0.35765 0.188171 3.40069 -5.24414 2.86191 
133.415 102.531 12.7666 -0.695622 2.3489 174.75 0.0854057 -26.2276 2.99869 5.33992 41.2602 -15.784 3.42861 -1.52118 -0.214854 4.60246 6.39728 -0.954926 -2.64586 1.51079 -1.09826 -0.729416 5.05252 -1.25551 1.91594 3.24625 4.74823 2.98177e-016 0 3.18055e-015 -114.716 -43.3721 -42.298 5.69488 10.5446 -9.3508 0.368473 9.90896 -0.00117923 19.1393 1.56108 2.57167 96.7146 -58.7615 45.2856 -2.2469 10.5862 -3.58551 -0.369625 9.91382 0.00119887 -6.04609 -3.84432 -3.32958 -0.815258 22.3582 24.9212 0.619897 -0.462604 0.188165 5.02219 -6.15454 3.10835 
133.394 102.425 10.8118 -0.614894 2.30211 175.229 0.409607 -25.1821 4.39155 4.49802 34.2087 -15.9459 3.84342 -1.54958 -0.222377 4.53262 6.51264 -0.84142 -2.63281 1.17942 -1.46716 -0.808158 4.45418 -1.55962 2.2111 3.70388 4.88223 -5.96354e-016 7.95139e-016 -0 -113.645 -43.2731 -41.883 5.27377 10.5632 -9.69342 0.368473 9.90896 -0.00117923 20.2269 1.74138 3.00921 96.5272 -61.6083 45.3994 -3.75735 10.234 -2.97321 -0.369625 9.91382 0.00119887 -6.08851 -2.65687 -3.2364 -0.6698 22.3616 24.8554 0.520653 -0.667513 0.191935 6.12874 -6.75111 3.28058 
133.401 102.345 8.83144 -0.474656 2.28976 175.685 0.75755 -23.7598 5.9891 3.54323 26.8229 -16.2179 4.28827 -1.52167 -0.228267 4.60855 6.88984 -0.763686 -2.51949 0.847399 -1.79239 -0.862027 3.93074 -1.82665 2.4737 4.15589 4.97605 -2.98177e-016 -3.97569e-016 -0 -112.717 -43.2207 -41.4442 4.98115 10.5561 -10.1193 0.368473 9.90896 -0.00117923 21.2661 1.90362 3.37068 96.3413 -64.3852 45.5736 -5.2418 9.84967 -2.36918 -0.369625 9.91382 0.00119887 -6.0281 -1.3451 -3.12093 -0.524711 22.2365 24.7084 0.399242 -0.742149 0.193691 6.95777 -7.26522 3.47939 
133.472 102.308 6.86497 -0.211571 2.30909 176.197 1.12378 -21.9732 7.95263 2.62298 19.325 -16.7255 4.5031 -1.773 -0.214795 5.11015 7.3853 -1.04477 -2.48587 0.775077 -2.01078 -0.612955 3.2843 -2.06562 2.78145 4.65297 4.86071 -4.47266e-016 3.97569e-016 4.77083e-015 -111.77 -43.0261 -40.8006 4.82306 10.5292 -10.5582 0.368473 9.90896 -0.00117923 22.3307 1.9833 3.41466 96.1111 -67.0291 45.8094 -6.64518 9.45099 -1.79609 -0.369625 9.91382 0.00119887 -5.72707 0.0291572 -3.10317 -0.48953 22.0084 24.487 0.315225 -0.486554 0.190066 7.46685 -7.81243 3.80458 
133.577 102.268 4.86405 0.0536874 2.328 176.714 1.33075 -20.2482 9.70489 1.84845 12.6692 -17.634 4.60826 -2.13131 -0.195085 5.58403 7.94272 -1.27103 -2.42436 0.733485 -2.2008 -0.289688 2.61649 -2.29984 3.01197 5.1693 4.73663 -1.49089e-016 3.97569e-016 -0 -110.899 -42.9378 -40.0923 4.66101 10.5091 -10.9574 0.368473 9.90896 -0.00117923 23.2725 2.05142 3.4296 95.5446 -69.4883 45.7363 -7.82665 9.09111 -1.31192 -0.369625 9.91382 0.00119887 -5.365 1.37107 -3.09437 -0.496954 21.8544 24.1934 0.292731 -0.0839817 0.182918 7.74163 -8.36164 4.20414 
133.695 102.174 2.79055 0.199068 2.30634 177.251 1.271 -19.0342 10.7907 1.49025 7.79006 -19.3311 4.6486 -2.56914 -0.1756 5.56554 8.52382 -1.02519 -2.27787 0.556044 -2.45364 -0.0663227 1.94526 -2.57714 3.04305 5.70196 4.7874 4.9075e-016 4.96962e-017 1.59028e-015 -110.09 -43.1864 -39.3761 4.29389 10.5354 -11.2436 0.368473 9.90896 -0.00117923 23.9485 2.16806 3.66512 94.0381 -71.6938 44.6763 -8.60327 8.83289 -0.992905 -0.369625 9.91382 0.00119887 -5.11521 2.55072 -3.05687 -0.494838 21.9682 23.824 0.413847 0.371158 0.172114 7.88703 -8.94891 4.67658 
